# xmcd CD database file
#
# Track frame offsets:
#	150
#	13048
#	25510
#	41292
#	55856
#	68984
#	80185
#	94689
#	111531
#	133154
#	151348
#	174622
#	194784
#	209519
#	217535
#
# Disc length: 3124 seconds
#
# Revision: 5
# Processed by: cddbd v1.5.2PL0 Copyright (c) Steve Scherf et al.
# Submitted via: CDex 1.51
#
DISCID=d30c320f
DTITLE=Various Artist - B.O.F. Baby Driver - CD2
DYEAR=2017
DGENRE=Soundtrack
TTITLE0=David McCallum_The Edge
TTITLE1=Martha Reeves and The Vandellas_Nowhere To Run
TTITLE2=Button-Down Brass_Tequila
TTITLE3=Sam and Dave_When Something Is Wrong With My Baby
TTITLE4=Brenda Holloway_Every Little Bit Hurts
TTITLE5=Blur_Intermission
TTITLE6=Focus_Hocus Pocus
TTITLE7=Golden Earring_Radar Love
TTITLE8=Barry White_Never, Never Gonna Give Ya Up
TTITLE9=Young MC_Know How
TTITLE10=Queen_Brighton Rock
TTITLE11=Sky Ferreira_Easy
TTITLE12=Simon and Garfunkel_Baby Driver
TTITLE13=Kid Koala_"Was He Slow?"
TTITLE14=Danger Mouse Feat.Run The Jewels And Big Boi_Chase Me
EXTD=YEAR: 2017
EXTT0=
EXTT1=
EXTT2=
EXTT3=
EXTT4=
EXTT5=
EXTT6=
EXTT7=
EXTT8=
EXTT9=
EXTT10=
EXTT11=
EXTT12=
EXTT13=
EXTT14=
PLAYORDER=
